<svg version="1.1" xmlns="http://www.w3.org/2000/svg" xmlns:xlink="http://www.w3.org/1999/xlink" width="372.00001" height="124.47032" viewBox="-2,-2,372.00001,124.47032"><g transform="translate(-56,-119.76484)"><g data-paper-data="{&quot;isPaintingLayer&quot;:true}" fill="none" fill-rule="nonzero" stroke="#000000" stroke-width="4" stroke-linecap="butt" stroke-linejoin="miter" stroke-miterlimit="10" stroke-dasharray="" stroke-dashoffset="0" font-family="none" font-weight="none" font-size="none" text-anchor="none" style="mix-blend-mode: normal"><path d="M56,240.23516v-120.47032h52.93151v120.47032z" data-paper-data="{&quot;origPos&quot;:null}" fill="#ffffff"/><path d="M108.09133,240.23516v-120.47032h52.93151v120.47032z" data-paper-data="{&quot;origPos&quot;:null}" fill="#ffffff"/><path d="M161.02283,240.23516v-120.47032h52.93151v120.47032z" data-paper-data="{&quot;origPos&quot;:null}" fill="#ffffff"/><path d="M213.11416,240.23516v-120.47032h52.9315v120.47032z" data-paper-data="{&quot;origPos&quot;:null}" fill="#ffffff"/><path d="M265.20548,240.23516v-120.47032h52.9315v120.47032z" data-paper-data="{&quot;origPos&quot;:null}" fill="#a3e2ff"/><path d="M318.13699,240.23516v-120.47032h52.93151v120.47032z" data-paper-data="{&quot;origPos&quot;:null}" fill="#ffffff"/><path d="M371.0685,240.23516v-120.47032h52.93151v120.47032z" data-paper-data="{&quot;origPos&quot;:null}" fill="#ffffff"/><path d="M89.60731,210.48044v-90.7156h35.28767v90.7156z" data-paper-data="{&quot;origPos&quot;:null}" fill="#000000"/><path d="M145.05936,210.48044v-90.7156h35.28767v90.7156z" data-paper-data="{&quot;origPos&quot;:null}" fill="#000000"/><path d="M197.99087,210.48044v-90.7156h35.28767v90.7156z" data-paper-data="{&quot;origPos&quot;:null}" fill="#000000"/><path d="M302.17352,210.48044v-90.7156h35.28767v90.7156z" data-paper-data="{&quot;origPos&quot;:null}" fill="#000000"/><path d="M351.74429,210.48044v-90.7156h35.28768v90.7156z" data-paper-data="{&quot;origPos&quot;:null}" fill="#000000"/></g></g></svg>